#!OML:ASF I:\Actors\actors\Patient Classification 2\Patient 1\Session 1\actor1.ASF
:FULLY-SPECIFIED
:DEGREES
476
root -0.297147 17.9041 3.65749 8.32364 3.06927 1.88996
lowerback 29.8019 -1.37686 1.25859
upperback 5.38516 -1.30914 0.315943
thorax -10.3743 -0.630048 0.119724
lowerneck -19.2229 -1.76747 -3.40323
upperneck -4.17783 -1.74608 4.99663
head 2.05865 -0.656426 2.12591
rclavicle -5.56597e-015 -5.76476e-015
rhumerus 6.91003 29.3985 -68.6924
rradius 91.6373
rwrist 8.10132
rhand -42.2474 -49.2633
rfingers 7.12502
rthumb -15.1335 -78.69
lclavicle -5.56597e-015 -5.76476e-015
lhumerus 11.5629 -31.5774 74.8787
lradius 92.5563
lwrist 9.51923
lhand -33.5112 -48.3802
lfingers 7.12502
lthumb -6.70776 -18.5065
rfemur -27.5242 -3.83833 10.3024
rtibia 39.7929
rfoot -24.3101 -5.26786
rtoes -14.2904
lfemur -34.7167 2.87035 -17.5922
ltibia 45.654
lfoot -19.0685 2.00052
ltoes -56.4541
477
root -0.289525 17.9379 3.64027 8.97801 3.09352 1.89101
lowerback 29.8926 -1.45185 1.30103
upperback 5.39921 -1.38368 0.360201
thorax -10.4036 -0.664543 0.174955
lowerneck -19.8486 -1.66748 -3.23925
upperneck -5.05281 -1.59994 4.81385
head 1.85131 -0.589063 2.04179
rclavicle -1.19271e-015 2.38542e-015
rhumerus 10.5187 27.8044 -68.0694
rradius 87.0506
rwrist 10.4478
rhand -40.0363 -49.6178
rfingers 7.12502
rthumb -13.0027 -79.1926
lclavicle -1.19271e-015 2.38542e-015
lhumerus 15.1018 -30.3105 74.8325
lradius 88.0327
lwrist 9.40115
lhand -33.6367 -49.8224
lfingers 7.12502
lthumb -6.82884 -19.9526
rfemur -28.0197 -3.6562 10.2753
rtibia 39.2059
rfoot -24.0367 -5.7021
rtoes -13.6863
lfemur -35.2384 2.68695 -17.6308
ltibia 45.1216
lfoot -18.6688 2.27231
ltoes -56.4222
478
root -0.284051 17.9848 3.6331 9.54244 3.06302 1.86721
lowerback 29.9611 -1.5232 1.32101
upperback 5.37805 -1.4637 0.382986
thorax -10.4625 -0.70149 0.221241
lowerneck -20.4945 -1.66861 -3.39658
upperneck -5.80813 -1.5303 5.04702
head 1.70502 -0.540142 2.15368
rclavicle -5.76476e-015 -1.98785e-015
rhumerus 14.1273 26.7971 -67.5544
rradius 82.1981
rwrist 10.7992
rhand -39.5426 -48.1559
rfingers 7.12502
rthumb -12.5268 -77.7604
lclavicle -5.76476e-015 -1.98785e-015
lhumerus 18.7524 -29.0204 74.7677
lradius 83.0471
lwrist 9.03502
lhand -33.6937 -50.6874
lfingers 7.12502
lthumb -6.88389 -20.8193
rfemur -28.2118 -3.35439 10.2689
rtibia 38.2786
rfoot -23.7047 -6.21624
rtoes -13.0654
lfemur -35.485 2.58194 -17.6359
ltibia 44.355
lfoot -18.1807 2.50019
ltoes -56.3506
479
root -0.2881 18.0472 3.63787 10.0106 2.9998 1.8179
lowerback 29.8944 -1.53553 1.09877
upperback 5.41365 -1.53464 0.50281
thorax -10.3798 -0.725246 0.510494
lowerneck -21.2168 -1.71437 -3.57584
upperneck -6.47427 -1.51286 5.23354
head 1.60247 -0.517087 2.25158
rclavicle -1.11319e-014 1.19271e-015
rhumerus 18.0452 26.3796 -66.7985
rradius 77.0682
rwrist 8.98416
rhand -40.6304 -44.9818
rfingers 7.12502
rthumb -13.5754 -74.5192
lclavicle -1.11319e-014 1.19271e-015
lhumerus 22.5752 -27.5876 74.7606
lradius 77.8558
lwrist 8.63207
lhand -33.7309 -49.9662
lfingers 7.12502
lthumb -6.91982 -20.0993
rfemur -28.0769 -2.89336 10.308
rtibia 37.0226
rfoot -23.3968 -6.89734
rtoes -12.6953
lfemur -35.4323 2.57011 -17.5828
ltibia 43.3602
lfoot -17.6532 2.64541
ltoes -56.2099
480
root -0.299668 18.1224 3.65215 10.4101 2.90593 1.69614
lowerback 29.6796 -1.46975 0.675678
upperback 5.49692 -1.55435 0.755273
thorax -10.159 -0.718738 1.04188
lowerneck -21.9357 -1.68016 -3.55306
upperneck -7.10361 -1.43258 5.04844
head 1.49611 -0.478816 2.19081
rclavicle 1.98785e-015 1.98785e-015
rhumerus 22.1953 24.9476 -66.337
rradius 71.6678
rwrist 11.1708
rhand -37.2926 -43.3242
rfingers 7.12502
rthumb -10.357 -73.0491
lclavicle 1.98785e-015 1.98785e-015
lhumerus 26.4642 -26.0056 74.9615
lradius 72.6708
lwrist 8.44325
lhand -33.6287 -48.3101
lfingers 7.12502
lthumb -6.82119 -18.44
rfemur -27.6805 -2.21067 10.4223
rtibia 35.4706
rfoot -23.1486 -7.77859
rtoes -12.3409
lfemur -35.1353 2.62297 -17.4147
ltibia 42.1495
lfoot -17.1135 2.76762
ltoes -56.0585
481
root -0.304875 18.2021 3.67063 10.6726 2.8587 1.62454
lowerback 29.6603 -1.45094 0.361411
upperback 5.48446 -1.60208 0.958487
thorax -10.1482 -0.728463 1.47138
lowerneck -22.6683 -1.6103 -3.44398
upperneck -7.54479 -1.33225 4.71461
head 1.45094 -0.436442 2.06679
rclavicle -1.03368e-014 7.7526e-015
rhumerus 26.2531 23.8036 -65.9778
rradius 66.0203
rwrist 12.2196
rhand -35.4918 -41.6332
rfingers 7.12502
rthumb -8.61944 -71.4372
lclavicle -1.03368e-014 7.7526e-015
lhumerus 30.1575 -24.4312 75.3886
lradius 67.4515
lwrist 8.44133
lhand -33.3625 -47.0786
lfingers 7.12502
lthumb -6.56415 -17.2003
rfemur -26.9697 -1.57379 10.4463
rtibia 33.6651
rfoot -22.8424 -8.58422
rtoes -11.2124
lfemur -34.5746 2.63791 -17.3137
ltibia 40.7611
lfoot -16.543 2.8882
ltoes -55.8709
482
root -0.304503 18.2831 3.69541 10.8655 2.87689 1.58234
lowerback 29.7103 -1.4873 0.240471
upperback 5.36078 -1.66908 1.08253
thorax -10.3061 -0.751956 1.71147
lowerneck -23.057 -1.5468 -3.54105
upperneck -8.0813 -1.1991 4.66945
head 1.32179 -0.367018 2.0794
rclavicle -7.35503e-015 7.7526e-015
rhumerus 30.199 22.6789 -65.709
rradius 60.1984
rwrist 12.8701
rhand -33.9375 -40.2147
rfingers 7.12502
rthumb -7.11921 -70.075
lclavicle -7.35503e-015 7.7526e-015
lhumerus 33.6837 -22.9103 76.0043
lradius 62.0269
lwrist 8.56586
lhand -32.871 -46.5433
lfingers 7.12502
lthumb -6.08966 -16.6508
rfemur -26.0276 -1.07677 10.4297
rtibia 31.6375
rfoot -22.4652 -9.31914
rtoes -9.6699
lfemur -33.8468 2.57487 -17.2534
ltibia 39.2327
lfoot -15.9589 3.03904
ltoes -55.7042
483
root -0.305197 18.3649 3.72728 11.0073 2.90696 1.45456
lowerback 29.6756 -1.50298 0.240563
upperback 5.18483 -1.67395 1.20603
thorax -10.4872 -0.750084 1.85706
lowerneck -22.9774 -1.48259 -3.87542
upperneck -8.78129 -1.01403 4.91078
head 1.06474 -0.260842 2.2335
rclavicle -2.00773e-014 4.96962e-015
rhumerus 34.0268 21.6664 -65.3063
rradius 54.4542
rwrist 12.4769
rhand -31.6424 -38.4108
rfingers 7.12502
rthumb -4.90341 -68.3341
lclavicle -2.00773e-014 4.96962e-015
lhumerus 37.137 -21.3944 76.9094
lradius 56.387
lwrist 8.61879
lhand -32.0402 -45.9691
lfingers 7.12502
lthumb -5.28751 -16.055
rfemur -24.9094 -0.549589 10.5097
rtibia 29.4202
rfoot -22.1108 -10.134
rtoes -8.54182
lfemur -32.9899 2.41038 -17.0639
ltibia 37.6031
lfoot -15.3839 3.28404
ltoes -55.6232
484
root -0.305603 18.4464 3.76615 11.0662 2.93834 1.36331
lowerback 29.6286 -1.48895 0.205608
upperback 4.94704 -1.65105 1.33233
thorax -10.7333 -0.732956 2.01742
lowerneck -23.0335 -1.49454 -4.1852
upperneck -9.06836 -0.943549 5.06828
head 0.976912 -0.211999 2.34924
rclavicle -5.76476e-015 -8.34896e-015
rhumerus 37.6007 21.146 -64.4832
rradius 49.0745
rwrist 9.59279
rhand -28.1595 -36.6299
rfingers 7.12502
rthumb -1.53996 -66.604
lclavicle -5.76476e-015 -8.34896e-015
lhumerus 40.2657 -19.8545 78.1251
lradius 50.9558
lwrist 8.52857
lhand -30.9341 -44.6305
lfingers 7.12502
lthumb -4.21946 -14.6925
rfemur -23.589 -0.0742357 10.5603
rtibia 27.0327
rfoot -21.7293 -10.9363
rtoes -7.69043
lfemur -31.9717 2.10481 -16.8786
ltibia 35.9173
lfoot -14.8692 3.60669
ltoes -55.4794
485
root -0.306319 18.5247 3.81481 11.0648 2.98071 1.33304
lowerback 29.4818 -1.42618 0.0612329
upperback 4.70097 -1.59706 1.48637
thorax -10.9364 -0.697012 2.25843
lowerneck -23.3305 -1.52828 -4.2629
upperneck -8.98477 -0.962276 4.93134
head 1.05321 -0.219622 2.31813
rclavicle 8.15017e-015 -1.59028e-014
rhumerus 40.7966 20.0412 -63.9856
rradius 44.2153
rwrist 9.25635
rhand -29.0812 -35.1656
rfingers 7.12502
rthumb -2.4301 -65.1315
lclavicle 8.15017e-015 -1.59028e-014
lhumerus 42.939 -18.4486 79.3098
lradius 46.3231
lwrist 8.97207
lhand -29.6727 -42.1781
lfingers 7.12502
lthumb -3.00133 -12.2195
rfemur -22.0784 0.394562 10.5512
rtibia 24.4693
rfoot -21.3529 -11.7781
rtoes -6.82612
lfemur -30.8532 1.77806 -16.7574
ltibia 34.2281
lfoot -14.39 3.96409
ltoes -55.4144
486
root -0.309419 18.5954 3.87274 11.0373 3.03873 1.25341
lowerback 29.4919 -1.44213 0.113151
upperback 4.27415 -1.59577 1.51247
thorax -11.4364 -0.689919 2.27063
lowerneck -23.58 -1.48286 -4.16417
upperneck -8.68495 -0.926467 4.77804
head 1.19292 -0.205458 2.2544
rclavicle 1.35174e-014 -1.27222e-014
rhumerus 43.2976 19.138 -63.6697
rradius 40.1804
rwrist 8.71452
rhand -27.063 -34.9898
rfingers 7.12502
rthumb -0.480935 -64.969
lclavicle 1.35174e-014 -1.27222e-014
lhumerus 44.8099 -17.2512 80.2459
lradius 42.8277
lwrist 9.95503
lhand -28.4845 -38.6797
lfingers 7.12502
lthumb -1.85387 -8.70803
rfemur -20.425 0.977696 10.595
rtibia 21.7329
rfoot -21.0547 -12.7423
rtoes -5.8702
lfemur -29.7228 1.44414 -16.5736
ltibia 32.5899
lfoot -13.9488 4.34548
ltoes -55.3788
